PathFileType	4	(X/Y/Z)	RBDS020\RBDS020runT45.trc
DataRate	CameraRate	NumFrames	NumMarkers	Units	OrigDataRate	OrigDataStartFrame	OrigNumFrames
150.000000	150.000000	4	33	mm	150.000000	2250	4500
Frame#	Time	L.ASIS			L.Heel.Bottom			L.Heel.Lateral			L.Heel.Top			L.Iliac.Crest			L.MT1			L.MT5			L.PSIS			L.Shank.Bottom.Lateral			L.Shank.Bottom.Medial			L.Shank.Top.Lateral			L.Shank.Top.Medial			L.Thigh.Bottom.Lateral			L.Thigh.Bottom.Medial			L.Thigh.Top.Lateral			L.Thigh.Top.Medial			R.ASIS			R.ASY			R.Heel.Bottom			R.Heel.Lateral			R.Heel.Top			R.Iliac.Crest			R.MT1			R.MT5			R.PSIS			R.Shank.Bottom.Lateral			R.Shank.Bottom.Medial			R.Shank.Top.Lateral			R.Shank.Top.Medial			R.Thigh.Bottom.Lateral			R.Thigh.Bottom.Medial			R.Thigh.Top.Lateral			R.Thigh.Top.Medial			
		X1	Y1	Z1	X2	Y2	Z2	X3	Y3	Z3	X4	Y4	Z4	X5	Y5	Z5	X6	Y6	Z6	X7	Y7	Z7	X8	Y8	Z8	X9	Y9	Z9	X10	Y10	Z10	X11	Y11	Z11	X12	Y12	Z12	X13	Y13	Z13	X14	Y14	Z14	X15	Y15	Z15	X16	Y16	Z16	X17	Y17	Z17	X18	Y18	Z18	X19	Y19	Z19	X20	Y20	Z20	X21	Y21	Z21	X22	Y22	Z22	X23	Y23	Z23	X24	Y24	Z24	X25	Y25	Z25	X26	Y26	Z26	X27	Y27	Z27	X28	Y28	Z28	X29	Y29	Z29	X30	Y30	Z30	X31	Y31	Z31	X32	Y32	Z32	X33	Y33	Z33	

2251	15	2290.342101876741	1006.155548365433	895.0255972842657	2357.480126102085	22.44256682598209	991.0021505380003	2375.458537405754	45.1038574210784	945.6236416800308	2361.943391998821	68.96653866425882	989.951883207679	2225.671208825644	1048.042837047539	858.2337293005291	2572.01670543066	71.33955309232869	998.5589333425527	2528.602561543935	50.36564915290398	897.1241376278999	2136.772874625003	1032.429348242279	965.8973641423576	2410.762925438715	161.6908772851778	913.3360512932984	2370.692271555104	164.3919140225476	951.4093183285996	2394.527374212809	237.3730604519641	892.5847867369071	2356.655890044737	241.2232082947272	930.6158109791745	2323.972855574291	665.6972111450408	835.6610237027961	2269.012153586459	639.2086735833644	874.8930737420437	2268.752491347818	759.7463519517395	822.3814981136001	2217.926486527761	735.9279459937823	862.5742902731279	2305.713622007499	972.2471600178095	1121.097669074966	1720.765277235246	339.4466808670471	1084.051391151907	1700.769444260154	525.5390519211252	1021.826292159918	1704.665914251573	509.1279136743702	1073.02373685786	1740.491688267523	512.6868172893627	1031.941044637575	2268.081694084501	1031.487887154228	1151.116842690794	1686.043988770407	310.9082923515653	1036.421066049944	1662.393401680847	359.555289102198	1132.588173817603	2147.314862158876	1026.749396893501	1064.256353948466	1835.623376812057	460.7465817307119	1117.70264208972	1840.437149010111	497.1621303186498	1081.361762521196	1917.788935086032	470.3112937546479	1136.368621162576	1917.939933493941	509.8313871301778	1100.936004093664	2162.91067000357	599.2725556079608	1167.206004818649	2113.545201332827	602.0273491057238	1115.833826748974	2161.056931379262	710.0281634068226	1172.525873684315	2114.585029500705	711.8717543652938	1122.61461006614	
2252	15.00666666666667	2288.020310653344	1002.301666515777	893.8612344443982	2328.541574462554	23.84091190924485	991.7241812943238	2347.741514069068	46.1496784457138	946.606708538624	2335.5984511598	70.42399693858802	991.2400675916816	2223.142090200776	1042.942113530143	857.9940370059977	2546.373523977233	62.56361057097087	999.3720006914668	2501.390810008899	44.8592113395642	897.5895295898741	2133.680458599414	1027.372722892796	966.7514759033704	2391.876161153306	159.4236638590587	914.3977666647293	2351.271181558988	164.6896904265813	951.5355588439471	2380.127891417862	235.6770835872513	892.8607571792961	2341.957141946799	241.984768677643	930.1716521477298	2322.310634986147	663.3084103486641	835.0947902275472	2267.24579353852	636.3106413776833	873.8877705923402	2266.418564862772	757.0496742461228	821.831892292208	2215.683342145954	732.8302931254537	861.8645609099781	2303.977614912435	968.0915274838069	1120.551277373795	1736.901244602922	342.571852823976	1084.385568439803	1719.655945377167	528.6362926106344	1020.507647424518	1723.958366414593	512.7679881108296	1072.029938371844	1759.172949957284	515.0237215973017	1030.306925255535	2266.16260464736	1026.100723774341	1151.628910957665	1701.188682414723	314.0993029533911	1037.539737602567	1679.475612387885	364.3364276331806	1133.643786657085	2144.726512925923	1021.01469976384	1064.750943877263	1853.548663193008	461.4584666314047	1116.957621686963	1859.394691752158	497.6709031844887	1080.473019072123	1935.900354948687	468.9693323562353	1135.819217160333	1937.160863696155	508.324874654094	1100.211529233653	2174.104181851513	591.9259441153104	1167.859840360854	2124.278369460485	592.3471773671438	1116.915257585226	2167.855047864613	702.511162332907	1172.792730746595	2120.931331730793	702.1972927359989	1123.364733865726	
2253	15.01333333333333	2285.422595373842	998.6551347529886	892.7478248793614	2298.70678936368	25.35472148824592	992.0499196397077	2318.930078478256	47.41826197113187	947.1636750580386	2307.89190766531	71.99775680462339	992.0417048108831	2220.275526957649	1037.936171312521	857.7832032824754	2519.167174703946	55.60778689456622	999.9638729139115	2472.991262712241	40.79771103908482	897.8372931715346	2130.268312434445	1022.531186226844	967.6529842103388	2371.723750493178	158.0091097464188	915.095560361407	2330.617944435192	165.9277177692429	951.2035668722261	2364.712481353509	234.690219387372	892.823354366466	2326.284435646789	243.5093877674306	929.3308842940929	2320.337421283397	661.0931811472268	834.3109181549332	2265.162144768426	633.6276033392569	872.7070144291158	2263.895057461084	754.6220261842768	821.1735630316592	2213.212699598122	730.0050834515383	861.0248084877767	2301.81240127539	964.1226320133667	1120.149187224816	1754.735522149359	344.0905889429737	1084.563889110488	1738.556390947321	530.1298862378852	1020.273443043582	1743.608251427655	514.6173691663178	1071.998363327362	1777.97382805653	516.0271346894446	1029.52464410568	2263.498406104893	1020.693492497743	1152.222791237318	1718.040775513659	315.7071832930287	1038.501054968861	1698.286396879484	366.7552546098224	1134.831146229541	2141.693357723259	1015.438500174735	1065.224342126465	1872.349767978432	461.1483021052882	1116.476524142861	1878.935055002616	497.3212135564014	1080.031471349257	1954.855405530137	467.0163793101834	1135.388176640058	1956.919170877768	506.3455668229016	1099.766311796842	2186.006448677182	585.3152093571179	1168.370244752338	2135.634016030245	583.2596027415974	1118.077841288306	2175.123877936732	695.5187587036801	1172.991953568963	2127.66636089457	692.9169349492606	1124.242322395345	
2254	15.02	2282.598803456825	995.312025590212	891.6956402342121	2268.424755051514	26.83811290451851	992.012095548488	2289.434118891767	48.75586564452133	947.3092200550113	2279.206533372294	73.5392525611864	992.3616915827835	2217.065983547993	1033.157555600945	857.6208549007396	2490.764168647945	50.60290553507699	1000.291959103249	2443.784313297109	38.16042288159094	897.867979599626	2126.638489957989	1018.019263682918	968.5971033065593	2350.39228264734	157.3085278262446	915.4111170187961	2308.89003080595	167.8856295891519	950.4746048482712	2348.216659373966	234.2336565102819	892.4997635419898	2309.625819046878	245.5392836636589	928.1803865758719	2317.807231424504	658.9363590684852	833.3762444576756	2262.488665790509	631.1322135173494	871.4302773373184	2261.064171835031	752.4131112257129	820.4523684488265	2210.374098721995	727.4847546216803	860.1174527616137	2299.257251462277	960.4580253106531	1119.910576091823	1774.075949035418	343.9996795780411	1084.561714643685	1757.267225169501	530.0858553670481	1021.142118121634	1763.372887985916	514.716654148885	1072.923366515435	1796.704364240029	515.7812637294998	1029.637736974365	2260.081362919427	1015.382343364029	1152.887798811726	1736.434248065549	315.725891383162	1039.251057090543	1718.605423059527	366.7830406322342	1136.08596302162	2138.298500448386	1010.130246137893	1065.687044648827	1891.843888969045	459.8838616496345	1116.25762957866	1898.854240073924	496.1957861383712	1080.036940110373	1974.490833817678	464.5668490837548	1135.056035329593	1977.025962861985	504.0302496667441	1099.588814547666	2198.550507498172	579.6562726661666	1168.674696265443	2147.59848888545	574.987498204699	1119.214617226622	2182.818988348741	689.2377530838011	1173.075666151765	2134.797263653828	684.2211377309227	1125.161566765928	
